<svg width="81" height="32" viewBox="0 0 81 32" fill="none" xmlns="http://www.w3.org/2000/svg">
<path d="M14.3683 9.47309C15.6374 10.289 16.5892 11.4221 17.3145 12.8272C18.0397 14.2776 18.4023 15.864 18.4023 17.6317C18.4023 19.3994 18.0397 20.9858 17.3145 22.4363C16.5892 23.8867 15.5921 24.9745 14.3683 25.7904C13.0992 26.6062 11.7394 27.0142 10.2436 27.0142C9.24646 27.0142 8.29462 26.8329 7.34278 26.4249C6.43626 26.0623 5.6204 25.5184 4.89519 24.8385C4.80453 25.3824 4.53258 25.8357 4.034 26.1983C3.58074 26.5609 3.08215 26.7422 2.49292 26.7422C1.81303 26.7422 1.2238 26.5156 0.725213 26.017C0.226629 25.5184 0 24.9292 0 24.2493V2.49292C0 1.81303 0.226629 1.2238 0.725213 0.725213C1.2238 0.226629 1.81303 0 2.49292 0C3.17281 0 3.76204 0.226629 4.26062 0.725213C4.75921 1.2238 4.98584 1.81303 4.98584 2.49292V10.3796C5.71105 9.69972 6.48159 9.15581 7.3881 8.7932C8.29462 8.4306 9.24646 8.2493 10.2436 8.2493C11.7847 8.2493 13.1445 8.65723 14.3683 9.47309ZM12.102 21.0765C12.9179 20.17 13.3258 19.0368 13.3258 17.6317C13.3258 16.2266 12.9179 15.0935 12.102 14.187C11.2861 13.2805 10.289 12.8272 9.11049 12.8272C7.93201 12.8272 6.93485 13.2805 6.11898 14.187C5.30312 15.0935 4.89519 16.2266 4.89519 17.6317C4.89519 19.0368 5.30312 20.17 6.11898 21.0765C6.93485 21.983 7.93201 22.4363 9.11049 22.4363C10.289 22.4363 11.2861 21.983 12.102 21.0765Z" fill="#6B00E0"/>
<path d="M32.5892 8.97451C33.0878 9.47309 33.3145 10.017 33.3145 10.6969C33.3145 11.3768 33.0878 11.966 32.5892 12.4193C32.0907 12.9179 31.5467 13.1445 30.8669 13.1445C29.0085 13.1445 27.6487 13.5977 26.7875 14.5496C25.9263 15.5014 25.5184 17.1332 25.5184 19.4901V24.2493C25.5184 24.9292 25.2918 25.4731 24.7932 25.9717C24.2946 26.4703 23.7507 26.6969 23.0708 26.6969C22.3909 26.6969 21.8017 26.4703 21.3484 25.9717C20.8499 25.4731 20.6232 24.9292 20.6232 24.2493V10.9688C20.6232 10.289 20.8499 9.69972 21.3484 9.24647C21.847 8.74788 22.3909 8.52125 23.0708 8.52125C23.7054 8.52125 24.2493 8.70256 24.7026 9.11049C25.1558 9.51842 25.4278 10.017 25.5184 10.6062C26.8329 9.01984 28.6459 8.2493 30.9575 8.2493C31.5467 8.2493 32.136 8.52125 32.5892 8.97451Z" fill="#6B00E0"/>
<path d="M46.9575 25.7904C45.5524 24.9745 44.4192 23.8414 43.6033 22.4363C42.7875 21.0312 42.3342 19.3994 42.3342 17.6317C42.3342 15.864 42.7422 14.2776 43.6033 12.8272C44.4192 11.4221 45.5524 10.289 46.9575 9.47309C48.3626 8.65723 49.949 8.2493 51.6713 8.2493C53.711 8.2493 55.5694 8.83853 57.2464 10.017C57.5637 10.1983 57.7903 10.4703 57.9263 10.8329C58.1076 11.1955 58.1529 11.5128 58.1529 11.9207C58.1529 12.5552 57.9263 13.0992 57.473 13.5524C57.0198 14.0057 56.4759 14.2323 55.8413 14.2323C55.2974 14.2323 54.8441 14.051 54.4362 13.7337C53.575 13.0992 52.6232 12.7819 51.626 12.7819C50.4475 12.7819 49.4504 13.2351 48.6345 14.1417C47.8187 15.0482 47.4107 16.1813 47.4107 17.5864C47.4107 18.9915 47.8187 20.1247 48.6345 21.0312C49.4504 21.9377 50.4475 22.3909 51.626 22.3909C52.6232 22.3909 53.575 22.0737 54.4362 21.4391C54.8441 21.1218 55.2974 20.9405 55.8413 20.9405C56.4759 20.9405 57.0198 21.1671 57.473 21.6204C57.9263 22.0737 58.1529 22.6176 58.1529 23.2521C58.1529 23.6147 58.0623 23.9773 57.9263 24.34C57.745 24.7026 57.5184 24.9745 57.2464 25.1558C55.5694 26.3343 53.711 26.9235 51.6713 26.9235C49.949 26.9689 48.3626 26.6062 46.9575 25.7904Z" fill="#6B00E0"/>
<path d="M80.4987 29.5977C80.4987 29.9603 80.408 30.3229 80.2267 30.6856C80.0454 31.0482 79.8188 31.3654 79.4562 31.5921C79.0482 31.864 78.595 32 78.0511 32C77.6884 32 77.3258 31.9094 76.9632 31.728C76.6006 31.5467 76.2834 31.3201 76.0567 30.9575L67.5355 19.1275L65.3145 20.9858V24.2946C65.3145 24.9745 65.0879 25.5637 64.5893 26.0623C64.0907 26.5609 63.5015 26.7875 62.8216 26.7875C62.1417 26.7875 61.5525 26.5609 61.0539 26.0623C60.5553 25.5637 60.3287 24.9745 60.3287 24.2946V2.53824C60.3287 1.85835 60.5553 1.26912 61.0539 0.770531C61.5525 0.271948 62.1417 0.0453186 62.8216 0.0453186C63.5015 0.0453186 64.0907 0.271948 64.5893 0.770531C65.0879 1.26912 65.3145 1.85835 65.3145 2.53824V14.6856L71.9774 9.01983C72.3853 8.61189 72.9292 8.43059 73.5638 8.43059C73.9264 8.43059 74.2437 8.52124 74.6063 8.65722C74.9236 8.7932 75.1955 9.01983 75.4222 9.33711C75.8301 9.74504 76.0114 10.2889 76.0114 10.8782C76.0114 11.6487 75.6941 12.2833 75.1049 12.7819L71.2975 16L80.0001 28.238C80.3173 28.6006 80.4987 29.0538 80.4987 29.5977Z" fill="#6B00E0"/>
<path d="M39.2975 9.24645C38.7989 8.74786 38.2097 8.52123 37.5298 8.52123C36.8499 8.52123 36.2607 8.74786 35.7621 9.24645C35.2635 9.74503 35.0369 10.3343 35.0369 11.0142V24.2946C35.0369 24.9745 35.2635 25.5637 35.7621 26.0623C36.2607 26.5609 36.8499 26.7875 37.5298 26.7875C38.2097 26.7875 38.7989 26.5609 39.2975 26.0623C39.7961 25.5637 40.0227 24.9745 40.0227 24.2946V11.0142C40.0227 10.2889 39.7961 9.74503 39.2975 9.24645Z" fill="#6B00E0"/>
<path d="M38.7535 2.49291C37.8017 1.63172 38.2549 0.58923 38.7082 0.0906465C37.3484 -0.0906566 36.034 1.26912 35.4447 2.31161C35.4447 2.35694 35.3994 2.40226 35.3994 2.40226C35.0368 3.08215 34.7649 3.94334 34.8102 4.71388V4.7592C34.8102 4.80453 34.8102 4.80453 34.8102 4.84986C34.8102 5.39376 34.9462 5.89235 35.2181 6.34561C35.7167 7.11614 36.5779 7.66005 37.5297 7.66005C37.711 7.66005 37.9377 7.66005 38.119 7.61473C39.3428 7.34277 40.2946 6.25495 40.2946 4.94051C40.2493 3.89801 39.66 2.94617 38.7535 2.49291Z" fill="#6B00E0"/>
</svg>
