<svg width="81" height="32" viewBox="0 0 81 32" fill="none" xmlns="http://www.w3.org/2000/svg">
<path d="M14.3683 9.47309C15.6374 10.289 16.5892 11.4221 17.3145 12.8272C18.0397 14.2776 18.4023 15.864 18.4023 17.6317C18.4023 19.3994 18.0397 20.9858 17.3145 22.4363C16.5892 23.8867 15.5921 24.9745 14.3683 25.7904C13.0992 26.6062 11.7394 27.0142 10.2436 27.0142C9.24646 27.0142 8.29462 26.8329 7.34278 26.4249C6.43626 26.0623 5.6204 25.5184 4.89519 24.8385C4.80453 25.3824 4.53258 25.8357 4.034 26.1983C3.58074 26.5609 3.08215 26.7422 2.49292 26.7422C1.81303 26.7422 1.2238 26.5156 0.725213 26.017C0.226629 25.5184 0 24.9292 0 24.2493V2.49292C0 1.81303 0.226629 1.2238 0.725213 0.725213C1.2238 0.226629 1.81303 0 2.49292 0C3.17281 0 3.76204 0.226629 4.26062 0.725213C4.75921 1.2238 4.98584 1.81303 4.98584 2.49292V10.3796C5.71105 9.69972 6.48159 9.15581 7.3881 8.7932C8.29462 8.4306 9.24646 8.2493 10.2436 8.2493C11.7847 8.2493 13.1445 8.65723 14.3683 9.47309ZM12.102 21.0765C12.9179 20.17 13.3258 19.0368 13.3258 17.6317C13.3258 16.2266 12.9179 15.0935 12.102 14.187C11.2861 13.2805 10.289 12.8272 9.11049 12.8272C7.93201 12.8272 6.93485 13.2805 6.11898 14.187C5.30312 15.0935 4.89519 16.2266 4.89519 17.6317C4.89519 19.0368 5.30312 20.17 6.11898 21.0765C6.93485 21.983 7.93201 22.4363 9.11049 22.4363C10.289 22.4363 11.2861 21.983 12.102 21.0765Z" fill="white"/>
<path d="M32.5892 8.97454C33.0878 9.47312 33.3145 10.017 33.3145 10.6969C33.3145 11.3768 33.0878 11.966 32.5892 12.4193C32.0907 12.9179 31.5467 13.1445 30.8669 13.1445C29.0085 13.1445 27.6487 13.5978 26.7875 14.5496C25.9263 15.5015 25.5184 17.1332 25.5184 19.4901V24.2493C25.5184 24.9292 25.2918 25.4731 24.7932 25.9717C24.2946 26.4703 23.7507 26.6969 23.0708 26.6969C22.3909 26.6969 21.8017 26.4703 21.3484 25.9717C20.8499 25.4731 20.6232 24.9292 20.6232 24.2493V10.9689C20.6232 10.289 20.8499 9.69975 21.3484 9.2465C21.847 8.74791 22.3909 8.52128 23.0708 8.52128C23.7054 8.52128 24.2493 8.70259 24.7026 9.11052C25.1558 9.51845 25.4278 10.017 25.5184 10.6063C26.8329 9.01987 28.6459 8.24933 30.9575 8.24933C31.5467 8.24933 32.136 8.52128 32.5892 8.97454Z" fill="white"/>
<path d="M46.9575 25.7904C45.5524 24.9745 44.4192 23.8414 43.6034 22.4363C42.7875 21.0312 42.3343 19.3995 42.3343 17.6318C42.3343 15.8641 42.7422 14.2777 43.6034 12.8272C44.4192 11.4221 45.5524 10.289 46.9575 9.47312C48.3626 8.65726 49.949 8.24933 51.6714 8.24933C53.711 8.24933 55.5694 8.83856 57.2464 10.017C57.5637 10.1983 57.7904 10.4703 57.9263 10.8329C58.1076 11.1955 58.153 11.5128 58.153 11.9207C58.153 12.5553 57.9263 13.0992 57.4731 13.5524C57.0198 14.0057 56.4759 14.2323 55.8413 14.2323C55.2974 14.2323 54.8442 14.051 54.4362 13.7337C53.5751 13.0992 52.6232 12.7819 51.626 12.7819C50.4476 12.7819 49.4504 13.2352 48.6345 14.1417C47.8187 15.0482 47.4107 16.1813 47.4107 17.5864C47.4107 18.9915 47.8187 20.1247 48.6345 21.0312C49.4504 21.9377 50.4476 22.391 51.626 22.391C52.6232 22.391 53.5751 22.0737 54.4362 21.4391C54.8442 21.1219 55.2974 20.9406 55.8413 20.9406C56.4759 20.9406 57.0198 21.1672 57.4731 21.6204C57.9263 22.0737 58.153 22.6176 58.153 23.2522C58.153 23.6148 58.0623 23.9774 57.9263 24.34C57.745 24.7026 57.5184 24.9745 57.2464 25.1558C55.5694 26.3343 53.711 26.9236 51.6714 26.9236C49.949 26.9689 48.3626 26.6063 46.9575 25.7904Z" fill="white"/>
<path d="M80.4987 29.5977C80.4987 29.9603 80.408 30.3229 80.2267 30.6855C80.0454 31.0481 79.8188 31.3654 79.4562 31.592C79.0482 31.864 78.595 32 78.0511 32C77.6884 32 77.3258 31.9093 76.9632 31.728C76.6006 31.5467 76.2834 31.3201 76.0567 30.9575L67.5355 19.1274L65.3145 20.9858V24.2946C65.3145 24.9745 65.0879 25.5637 64.5893 26.0623C64.0907 26.5609 63.5015 26.7875 62.8216 26.7875C62.1417 26.7875 61.5525 26.5609 61.0539 26.0623C60.5553 25.5637 60.3287 24.9745 60.3287 24.2946V2.53821C60.3287 1.85832 60.5553 1.26908 61.0539 0.770501C61.5525 0.271917 62.1417 0.0452881 62.8216 0.0452881C63.5015 0.0452881 64.0907 0.271917 64.5893 0.770501C65.0879 1.26908 65.3145 1.85832 65.3145 2.53821V14.6855L71.9774 9.0198C72.3853 8.61186 72.9292 8.43056 73.5638 8.43056C73.9264 8.43056 74.2437 8.52121 74.6063 8.65719C74.9236 8.79317 75.1955 9.0198 75.4222 9.33708C75.8301 9.74501 76.0114 10.2889 76.0114 10.8782C76.0114 11.6487 75.6941 12.2833 75.1049 12.7818L71.2975 16L80.0001 28.2379C80.3173 28.6005 80.4987 29.0538 80.4987 29.5977Z" fill="white"/>
<path d="M39.2975 9.24645C38.7989 8.74786 38.2096 8.52123 37.5298 8.52123C36.8499 8.52123 36.2606 8.74786 35.762 9.24645C35.2635 9.74503 35.0368 10.3343 35.0368 11.0142V24.2946C35.0368 24.9745 35.2635 25.5637 35.762 26.0623C36.2606 26.5609 36.8499 26.7875 37.5298 26.7875C38.2096 26.7875 38.7989 26.5609 39.2975 26.0623C39.796 25.5637 40.0227 24.9745 40.0227 24.2946V11.0142C40.0227 10.2889 39.796 9.74503 39.2975 9.24645Z" fill="white"/>
<path d="M38.7535 2.49294C37.8017 1.63175 38.2549 0.589261 38.7082 0.0906771C37.3484 -0.0906261 36.034 1.26915 35.4447 2.31164C35.4447 2.35697 35.3994 2.40229 35.3994 2.40229C35.0368 3.08218 34.7649 3.94337 34.8102 4.71391V4.75923C34.8102 4.80456 34.8102 4.80456 34.8102 4.84989C34.8102 5.3938 34.9462 5.89238 35.2181 6.34564C35.7167 7.11618 36.5779 7.66008 37.5297 7.66008C37.711 7.66008 37.9377 7.66008 38.119 7.61476C39.3428 7.3428 40.2946 6.25499 40.2946 4.94054C40.2493 3.89804 39.66 2.9462 38.7535 2.49294Z" fill="white"/>
</svg>
